<?xml version="1.0"?>
<svg fill="#8ecfe3" id="Layer_1" xmlns="http://www.w3.org/2000/svg" version="1.1" viewBox="0 0 406.6 1728">
  
  <defs>
    
  </defs>
  <path class="st0" d="M236,217.7c-7.5,2.3-15.3,3.7-23.1,4.1,0,.5-.1,1-.2,1.4l-15.8,47.3c4,.3,7.9.5,12,.5,9.6,0,19.1-1,28.5-3l-1.4-50.3Z"></path>
  <path class="st0" d="M244.3,216.2l1.3,49.9c13.1-3.6,25.7-9,37.2-16.2l-18.4-46.9c-6.2,4.8-13.1,8.8-20.3,11.8.1.4.2.9.2,1.4Z"></path>
  <path class="st0" d="M348.9,117c-1.2-13.5-4.4-26.8-9.5-39.5l-49.3,10.1c3.6,7,6.3,14.4,8.1,22.1.3-.1.5-.1.8-.1.2,0,.4,0,.6.1l49.3,7.3"></path>
  <path class="st0" d="M67.5,134.4l49.8,7.4c-1-7.8-1-15.7,0-23.5-.5-.1-.9-.2-1.4-.4l-43.9-23.8"></path>
  <path class="st0" d="M141.8,254.3l31.3-39.4c-7.3-3-14.1-7-20.4-11.7-.3.4-.7.7-1.1,1l-42.5,26.1c9.8,9.5,20.7,17.6,32.7,24Z"></path>
  <path class="st0" d="M68,142.9c1.2,13.5,4.4,26.8,9.5,39.5l49.4-10.1c-3.6-7-6.3-14.4-8.1-22.1-.5.1-1,.1-1.4,0l-49.4-7.3"></path>
  <path class="st0" d="M181.2,217.8c-.2.5-.4.9-.7,1.3l-31,39.1c12.3,5.7,25.5,9.6,38.9,11.5l16-47.8c-7.9-.4-15.7-1.8-23.2-4.1Z"></path>
  <path class="st0" d="M134.6,75.2c1-1.3,2-2.6,3-3.8h-6.3l3.3,3.8Z"></path>
  <path class="st0" d="M349.5,125.5l-49.8-7.4c1,7.8,1,15.7,0,23.5.5.1.9.2,1.4.4l43.9,23.8c3.1-11.8,4.7-24,4.6-36.2"></path>
  <path class="st0" d="M118.7,109.9c2.2-9.7,5.9-19,11.1-27.5l-9.7-10.9-40.1.1c-2.1,4.7-4,9.5-5.6,14.3l44.3,24Z"></path>
  <path class="st0" d="M129.8,180.2l-48.9,10c5.8,12.3,13.4,23.7,22.4,33.8l42.9-26.3c-5.8-5.3-10.9-11.4-15.1-18-.4.2-.8.4-1.3.5Z"></path>
  <path class="st0" d="M291.4,173l33.1,37.4c7.8-11.2,13.9-23.4,18.1-36.4l-44.3-24c-1.7,7.7-4.4,15.1-8,22.1.4.2.8.5,1.1.9Z"></path>
  <path class="st0" d="M271.7,198.7l18.3,46.4c11.1-7.9,21-17.3,29.4-28l-33.4-37.7c-4.2,6.6-9.3,12.7-15.1,18,.3.5.6.9.8,1.3Z"></path>
  <path class="st0" d="M287.2,79.7l42.8-8.7-50.9.1c2.4,2.9,4.7,6,6.7,9.1.5-.2.9-.4,1.4-.5Z"></path>
  <path class="st0" d="M261.9,71.1l-107,.3c-32.3,29.6-34.5,79.9-4.9,112.2s79.9,34.5,112.2,4.9c32.3-29.6,34.5-79.9,4.9-112.2-1.7-1.8-3.4-3.5-5.2-5.2ZM177.3,120.1c-.1.8-.5,1.6-1,2.2-1.6,1.8-4.4,1.9-6.2.2l-11.5-10.5,16.2,7.5c.8.5,1.6.7,2.5.6h0ZM199.9,161.2c.8.1,1.6.5,2.2,1,1.8,1.6,1.9,4.4.2,6.2l-10.4,11.6,7.5-16.2c.3-.8.5-1.7.5-2.6ZM240.9,138.6c.1-.8.5-1.6,1-2.2,1.6-1.8,4.4-1.9,6.2-.2l11.5,10.5-16.2-7.5c-.7-.4-1.6-.6-2.5-.6ZM218.4,97.5c-.8-.1-1.6-.5-2.2-1-1.8-1.6-1.9-4.4-.2-6.2l10.5-11.5-7.6,16.2c-.3.8-.5,1.7-.5,2.5ZM187.2,72.2l11.5,10.5-16.9-7.8c-.6-.3-1.2-.4-1.8-.5.2-.7.5-1.4,1-2,1.7-1.7,4.4-1.8,6.2-.2ZM151.9,151.3l10.5-11.5-7.8,16.9c-.3.6-.4,1.2-.5,1.8-.7-.1-1.4-.5-2-1-1.7-1.7-1.8-4.4-.2-6.2ZM231,186.6l-11.5-10.5,16.9,7.8c.6.3,1.2.4,1.8.5-.2.7-.5,1.4-1,1.9-1.6,1.8-4.4,1.9-6.2.3h0ZM266.3,107.5l-10.5,11.5,7.8-16.9c.3-.6.4-1.2.5-1.8.7.1,1.4.5,2,1,1.7,1.7,1.8,4.4.2,6.2h0ZM165.9,92.5l20.9,9.7c2.1,1.1,3,3.8,1.9,5.9-1.1,2-3.5,2.9-5.6,2l-20.9-9.7c-2.2-1-3.1-3.6-2.1-5.8,1-2.2,3.6-3.1,5.8-2.1ZM173.5,84.4l20.9,9.7c2.2,1,3.1,3.6,2.1,5.8-1,2.2-3.6,3.1-5.8,2.1l-20.9-9.7c-2.2-1-3.1-3.6-2.1-5.8s3.6-3.1,5.8-2.1h0ZM181.2,76.3l20.9,9.7c2.2,1,3.2,3.7,2.1,5.9s-3.7,3.2-5.9,2.1l-20.9-9.8c-2.2-1-3.1-3.6-2.1-5.8,1.1-2.2,3.7-3.1,5.9-2.1h0ZM158.2,100.6l20.9,9.7c2.2.9,3.3,3.5,2.3,5.7s-3.5,3.3-5.7,2.3c-.1,0-.2-.1-.3-.2l-20.9-9.7c-2.2-1-3.1-3.6-2.1-5.8,1-2.1,3.6-3,5.8-2h0ZM172.2,172.6l9.7-20.9c1-2.2,3.7-3.2,5.9-2.1,2.2,1,3.2,3.7,2.1,5.9l-9.7,20.9c-1,2.2-3.6,3.1-5.8,2.1s-3.1-3.6-2.2-5.9h0ZM164.1,165l9.7-20.9c1-2.2,3.6-3.1,5.8-2.1s3.1,3.6,2.1,5.8l-9.7,20.9c-1,2.2-3.6,3.2-5.8,2.2s-3.2-3.6-2.2-5.8c.1,0,.1-.1.1-.1ZM156,157.3l9.7-20.9c1-2.2,3.6-3.2,5.9-2.1,2.2,1,3.2,3.6,2.1,5.9l-9.8,20.9c-.9,2.2-3.5,3.3-5.7,2.3s-3.3-3.5-2.3-5.7c0-.1,0-.3.1-.4h0ZM180.4,180.3l9.7-20.9c1-2.2,3.6-3.1,5.8-2.1s3.1,3.6,2.1,5.8l-9.7,20.9c-1.1,2.1-3.8,3-5.9,1.9-2-1-2.9-3.5-2-5.6ZM252.4,166.3l-20.9-9.7c-2.2-.9-3.3-3.5-2.3-5.7s3.5-3.3,5.7-2.3c.1,0,.2.1.3.2l20.9,9.7c2.2,1,3.1,3.6,2.1,5.8-1,2.1-3.6,3-5.8,2h0ZM244.8,174.4l-20.9-9.7c-2.2-1-3.1-3.6-2.1-5.8s3.6-3.1,5.8-2.1h0l20.9,9.7c2.2,1,3.1,3.6,2.1,5.8-1,2.2-3.7,3.1-5.8,2.1h0ZM237.1,182.5l-20.9-9.7c-2.2-1.1-3.1-3.7-2-5.9,1-2.1,3.5-3,5.7-2.1l20.9,9.7c2.2,1,3.1,3.6,2.1,5.8-1,2.3-3.6,3.2-5.8,2.2ZM260.1,158.2l-20.9-9.7c-2.2-1-3.1-3.6-2.1-5.8s3.6-3.1,5.8-2.1l20.9,9.7c2.2.9,3.3,3.5,2.3,5.7s-3.5,3.3-5.7,2.3c-.1,0-.2-.1-.3-.1ZM246,86.2l-9.7,20.9c-.9,2.2-3.5,3.3-5.7,2.3-2.2-.9-3.3-3.5-2.3-5.7,0-.1.1-.2.2-.3l9.7-20.9c1-2.2,3.6-3.1,5.8-2.1s3.1,3.6,2,5.8ZM254.1,93.8l-9.7,20.9c-1,2.2-3.6,3.2-5.8,2.2s-3.2-3.6-2.2-5.8c0,0,0-.1.1-.1l9.7-20.9c1-2.2,3.6-3.1,5.8-2.1s3.2,3.6,2.1,5.8ZM262.3,101.5l-9.7,20.9c-1,2.2-3.6,3.2-5.9,2.1-2.2-1-3.2-3.6-2.1-5.9l9.7-20.9c1-2.2,3.6-3.2,5.8-2.2,2.2,1,3.2,3.6,2.2,5.8q-.1.1,0,.2h0ZM237.9,78.4l-9.7,20.9c-1,2.2-3.6,3.1-5.8,2.1s-3.1-3.6-2.1-5.8h0l9.6-20.9c1-2.2,3.7-3.2,5.9-2.1,2.2,1,3.2,3.6,2.1,5.8h0ZM208.6,151.4c-11.8,0-21.5-9.6-21.5-21.4s9.6-21.5,21.4-21.5,21.5,9.6,21.5,21.4-9.6,21.5-21.4,21.5h0Z"></path>
  <path class="st0" d="M248.3,441.9c-.4,6.3-2,12.4-4.6,18.1-2.4,5.1-5.8,9.7-9.8,13.7-4.1,3.8-9,6.7-14.2,8.6-5.8,2-11.9,3-18,3-7.6.1-15-1.4-22-4.3-3.2-1.3-6.2-3-9-5-2.7-1.9-5.2-4.1-7.5-6.6-4.5-5.1-8-11.1-10.2-17.5-2.4-7-3.6-14.3-3.6-21.7-.1-7.5,1.1-14.9,3.6-22,2.2-6.6,5.7-12.6,10.2-17.8,2.2-2.5,4.8-4.8,7.5-6.8,2.8-2,5.8-3.7,9-5,12.2-5,25.8-5.7,38.5-1.8,5.1,1.5,9.8,4,14,7.3s7.7,7.4,10.2,12c2.7,5.1,4.4,10.6,5,16.3h-22.5c-.4-2.6-1.3-5.1-2.7-7.3-1.3-2.3-3.1-4.3-5.2-5.9-2.2-1.7-4.6-3-7.1-3.9-2.6-1-5.4-1.5-8.2-1.5-5.3,0-9.8,1-13.4,3.1-3.7,1.9-6.7,4.7-8.9,8.2-2.4,3.5-4.1,7.4-5,11.6-.3,1.3-.5,2.5-.7,3.7s-.3,2.4-.4,3.7l51.2,23.3v.9c.6-2.1,1-4.2,1.3-6.4h22.5ZM188.3,462.7c3.6,2.1,8,3.1,13.4,3.1,5.9,0,10.8-1.6,14.6-4.8l-42.2-19.2c.1.2.1.4.2.7,0,.2,0,.5.1.7,1,4.1,2.7,8,5,11.4,2.3,3.4,5.4,6.2,8.9,8.1Z"></path>
  <path class="st0" d="M188.3,634.3v9.2h51.7v19.6h-75v-106.2h23.3v59.3h51.7v18.1h-51.7Z"></path>
  <path class="st0" d="M244,737.4v66c0,14.5-4,25.2-12,32.1-8.1,7-19.2,10.5-33.4,10.5s-25.2-3.5-33.2-10.4c-7.9-7.1-11.9-17.8-11.9-32.2v-66h23.4v47.8l43.8,19.9c0-.3,0-.5.1-.8s.1-.7.1-1v-66l23.1.1ZM198.7,826.5c8.3,0,14.1-1.9,17.3-5.7,0-.1,0-.2.1-.2s.1,0,.1-.1l-39.2-18v.8c0,1.4.1,2.9.2,4.3.2,1.4.3,2.8.5,4.2.5,2.7,1.6,5.2,3.1,7.4,1.8,2.2,4.1,4,6.7,5.2,3.5,1.5,7.3,2.2,11.2,2.1h0Z"></path>
  <path class="st0" d="M210.5,937.2v9.1h31.9v18.1h-31.9v59.4h-23.3v-59.4h-31.8v-18.1h31.8v-9.1h-31.8v-19.6h87v19.6h-31.9Z"></path>
  <path class="st0" d="M248.3,1163.3c-.4,6.3-2,12.4-4.6,18.1-2.4,5.1-5.8,9.7-9.8,13.7-4.1,3.8-9,6.7-14.2,8.6-5.8,2-11.9,3-18,3-7.6.1-15-1.4-22-4.3-3.2-1.3-6.2-3-9-5-2.7-1.9-5.2-4.1-7.5-6.6-4.5-5.1-8-11.1-10.2-17.5-2.4-7-3.6-14.3-3.6-21.7-.1-7.5,1.1-14.9,3.6-22,2.2-6.6,5.7-12.6,10.2-17.8,2.2-2.5,4.8-4.8,7.5-6.8,2.8-2,5.8-3.7,9-5,12.2-5,25.8-5.7,38.5-1.8,5.1,1.5,9.8,4,14,7.3s7.7,7.4,10.2,12c2.7,5.1,4.4,10.6,5,16.3h-22.5c-.4-2.6-1.3-5.1-2.7-7.3-1.3-2.3-3.1-4.3-5.2-5.9-2.2-1.7-4.6-3-7.1-3.9-2.6-1-5.4-1.5-8.2-1.5-5.3,0-9.8,1-13.4,3.1-3.7,1.9-6.7,4.7-8.9,8.2-2.4,3.5-4.1,7.4-5,11.6-.3,1.3-.5,2.5-.7,3.7s-.3,2.4-.4,3.7l51.2,23.3v.9c.6-2.1,1-4.2,1.3-6.4h22.5ZM188.3,1184.1c3.6,2.1,8,3.1,13.4,3.1,5.9,0,10.8-1.6,14.6-4.8l-42.2-19.2c.1.2.1.4.2.7,0,.2,0,.5.1.7,1,4.1,2.7,8,5,11.4,2.3,3.4,5.4,6.2,8.9,8.1h0Z"></path>
  <path class="st0" d="M220.3,1278.3h23.3v106.2h-23.3v-30.4h-42.9v30.4h-23.4v-106.2h23.3v30.4h42.9v-30.4h.1ZM177.3,1335.9h42.9v-9.1h-42.9v9.1h0Z"></path>
</svg>