<?xml version="1.0"?>
<svg fill="#8ecfe3" id="Layer_1" xmlns="http://www.w3.org/2000/svg" version="1.1" viewBox="0 0 360 111.22">
  
  <defs>
    
  </defs>
  <g>
    <path class="st0" d="M26.9,61.79c-.6-1.92-.97-3.94-1.06-6.03-.12,0-.25-.01-.37-.05l-12.32-4.12c-.08,1.03-.13,2.07-.13,3.12,0,2.55.27,5.03.77,7.43l13.11-.35Z"></path>
    <path class="st0" d="M27.31,63.95l-12.99.35c.94,3.46,2.38,6.72,4.22,9.69l12.2-4.81c-1.24-1.62-2.27-3.39-3.07-5.3-.11.04-.24.07-.36.07Z"></path>
    <path class="st0" d="M55.04,77.99c.01.07.02.14.02.21,0,.05,0,.11-.01.16l-1.91,12.85c3.6-.33,7.05-1.17,10.28-2.47l-2.62-12.86c-1.8.93-3.72,1.65-5.75,2.1Z"></path>
    <path class="st0" d="M49.7,30.67c1.05,0,2.08.06,3.09.19.02-.12.06-.24.12-.36l6.19-11.42c-3.01-.79-6.17-1.21-9.43-1.2-.36,0-.71,0-1.07.02l-1.93,12.97c.99-.13,2-.19,3.03-.2Z"></path>
    <path class="st0" d="M17.38,37.26l10.27,8.16c.79-1.9,1.83-3.68,3.06-5.3-.1-.08-.18-.17-.25-.28l-6.79-11.07c-2.48,2.5-4.6,5.36-6.29,8.5Z"></path>
    <path class="st0" d="M38.73,33.36c1.8-.93,3.72-1.64,5.75-2.1-.02-.12-.03-.24-.01-.37l1.91-12.85c-3.6.33-7.05,1.17-10.28,2.46l2.62,12.86Z"></path>
    <path class="st0" d="M26.89,47.51c-.11-.04-.23-.1-.33-.18l-10.18-8.09c-1.46,3.16-2.48,6.57-2.99,10.14l12.44,4.16c.09-2.09.45-4.11,1.05-6.03Z"></path>
    <path class="st0" d="M64.02,35.38c.34.25.67.51.99.77v-1.65s-.99.87-.99.87Z"></path>
    <path class="st0" d="M49.82,78.57c-1.05,0-2.08-.06-3.09-.19-.02.12-.06.24-.12.35l-6.2,11.43c3.01.79,6.17,1.21,9.43,1.2.36,0,.71,0,1.07-.02l1.93-12.97c-.99.13-2.01.2-3.03.2Z"></path>
    <path class="st0" d="M54.98,31.24c2.57.57,4.98,1.56,7.17,2.88l2.84-2.52-.03-10.44c-1.21-.55-2.46-1.04-3.73-1.46l-6.25,11.53Z"></path>
    <path class="st0" d="M36.67,34.13l-2.6-12.74c-3.22,1.52-6.18,3.5-8.81,5.85l6.86,11.18c1.38-1.5,2.96-2.83,4.68-3.94-.06-.1-.11-.22-.14-.35Z"></path>
    <path class="st0" d="M38.56,76.21l-9.73,8.61c2.88,2,6.06,3.6,9.46,4.72l6.26-11.53c-2.03-.45-3.96-1.16-5.76-2.09-.06.11-.14.21-.23.29Z"></path>
    <path class="st0" d="M31.85,71.07l-12.09,4.77c2.05,2.89,4.5,5.47,7.28,7.66l9.82-8.7c-1.73-1.11-3.3-2.43-4.69-3.93-.09.08-.2.15-.32.2Z"></path>
    <path class="st0" d="M62.85,75.12l2.28,11.16-.03-13.25c-.76.63-1.55,1.21-2.38,1.75.06.1.11.22.14.35Z"></path>
  </g>
  <path class="st0" d="M65.08,68.52l-.07-27.87c-3.79-4.14-9.25-6.73-15.3-6.71-11.42.03-20.66,9.31-20.63,20.73.03,11.42,9.31,20.66,20.73,20.63,6.06-.01,11.5-2.63,15.27-6.79ZM52.32,46.5c-.21-.04-.41-.11-.58-.26-.46-.43-.49-1.15-.06-1.61l2.73-3-1.95,4.22c-.1.21-.14.43-.14.65ZM41.62,52.39c-.04.21-.11.41-.26.58-.43.46-1.15.49-1.61.06l-3-2.73,4.22,1.95c.21.1.43.14.65.14ZM47.51,63.09c.21.04.41.11.58.26.46.43.49,1.15.06,1.61l-2.73,3,1.95-4.22c.1-.21.14-.43.14-.65ZM58.21,57.19c.04-.21.11-.41.26-.58.43-.46,1.15-.49,1.61-.06l3,2.73-4.22-1.95c-.21-.1-.43-.14-.65-.14ZM64.8,49.08l-2.74,3,2.03-4.4c.07-.15.11-.31.13-.47.18.04.36.12.51.25.46.43.49,1.15.06,1.62ZM44.2,39.9l3,2.74-4.4-2.03c-.15-.07-.31-.11-.47-.13.04-.18.12-.36.25-.51.43-.46,1.15-.49,1.62-.06ZM35.02,60.5l2.74-3-2.03,4.4c-.07.15-.11.31-.13.47-.18-.04-.36-.12-.51-.25-.46-.43-.49-1.15-.06-1.62ZM55.62,69.68l-3-2.74,4.4,2.03c.15.07.31.11.47.13-.04.18-.12.36-.25.51-.43.46-1.15.49-1.62.06ZM59.51,43.52l-2.52,5.45c-.27.57-.95.82-1.52.55-.57-.27-.82-.95-.55-1.52l2.52-5.45c.27-.57.95-.82,1.52-.55.57.27.82.95.55,1.52ZM61.63,45.51l-2.52,5.45c-.27.57-.95.82-1.52.55-.57-.27-.82-.95-.55-1.52l2.52-5.45c.27-.57.95-.82,1.52-.55.57.27.82.95.55,1.52ZM63.74,47.51l-2.52,5.45c-.27.57-.95.82-1.52.55-.57-.27-.82-.95-.55-1.52l2.52-5.45c.27-.57.95-.82,1.52-.55.57.27.82.95.55,1.52ZM57.4,41.53l-2.52,5.45c-.27.57-.95.82-1.52.55-.57-.27-.82-.95-.55-1.52l2.52-5.45c.27-.57.95-.82,1.52-.55.57.27.82.95.55,1.52ZM38.64,45.19l5.45,2.52c.57.27.82.95.55,1.52-.27.57-.95.82-1.52.55l-5.45-2.52c-.57-.27-.82-.95-.55-1.52.27-.57.95-.82,1.52-.55ZM40.63,43.07l5.45,2.52c.57.27.82.95.55,1.52-.27.57-.95.82-1.52.55l-5.45-2.52c-.57-.27-.82-.95-.55-1.52.27-.57.95-.82,1.52-.55ZM42.63,40.96l5.45,2.52c.57.27.82.95.55,1.52-.27.57-.95.82-1.52.55l-5.45-2.52c-.57-.27-.82-.95-.55-1.52.27-.57.95-.82,1.52-.55ZM36.65,47.3l5.45,2.52c.57.27.82.95.55,1.52-.27.57-.95.82-1.52.55l-5.45-2.52c-.57-.27-.82-.95-.55-1.52.27-.57.95-.82,1.52-.55ZM40.31,66.06l2.52-5.45c.27-.57.95-.82,1.52-.55.57.27.82.95.55,1.52l-2.52,5.45c-.27.57-.95.82-1.52.55-.57-.27-.82-.95-.55-1.52ZM38.19,64.07l2.52-5.45c.27-.57.95-.82,1.52-.55.57.27.82.95.55,1.52l-2.52,5.45c-.27.57-.95.82-1.52.55-.57-.27-.82-.95-.55-1.52ZM36.08,62.07l2.52-5.45c.27-.57.95-.82,1.52-.55.57.27.82.95.55,1.52l-2.52,5.45c-.27.57-.95.82-1.52.55-.57-.27-.82-.95-.55-1.52ZM42.42,68.05l2.52-5.45c.27-.57.95-.82,1.52-.55.57.27.82.95.55,1.52l-2.52,5.45c-.27.57-.95.82-1.52.55-.57-.27-.82-.95-.55-1.52ZM61.18,64.39l-5.45-2.52c-.57-.27-.82-.95-.55-1.52.27-.57.95-.82,1.52-.55l5.45,2.52c.57.27.82.95.55,1.52-.27.57-.95.82-1.52.55ZM59.19,66.51l-5.45-2.52c-.57-.27-.82-.95-.55-1.52.27-.57.95-.82,1.52-.55l5.45,2.52c.57.27.82.95.55,1.52-.27.57-.95.82-1.52.55ZM57.19,68.62l-5.45-2.52c-.57-.27-.82-.95-.55-1.52.27-.57.95-.82,1.52-.55l5.45,2.52c.57.27.82.95.55,1.52-.27.57-.95.82-1.52.55ZM63.18,62.28l-5.45-2.52c-.57-.27-.82-.95-.55-1.52.27-.57.95-.82,1.52-.55l5.45,2.52c.57.27.82.95.55,1.52-.27.57-.95.82-1.52.55ZM44.18,54.64c0-3.08,2.49-5.59,5.57-5.6,3.09,0,5.6,2.49,5.6,5.57,0,3.08-2.49,5.59-5.57,5.6-3.09,0-5.59-2.49-5.6-5.57Z"></path>
  <g>
    <path class="st0" d="M112.41,56.65c-.14,1.62-.51,3.05-1.09,4.3-.59,1.22-1.36,2.3-2.32,3.24-.94.87-2.07,1.55-3.38,2.04-1.34.47-2.76.7-4.26.7-1.9,0-3.64-.34-5.21-1.02-.77-.33-1.49-.72-2.13-1.18-.65-.46-1.24-.98-1.78-1.57-1.06-1.2-1.87-2.58-2.43-4.16-.56-1.57-.85-3.29-.85-5.14s.28-3.62.85-5.21c.56-1.62,1.37-3.03,2.43-4.23.54-.61,1.13-1.15,1.78-1.62s1.36-.87,2.13-1.2c1.57-.68,3.31-1.02,5.21-1.02,1.34,0,2.64.2,3.91.6,1.22.38,2.32.95,3.31,1.73.99.77,1.8,1.73,2.43,2.85.61,1.1,1.01,2.39,1.2,3.87h-5.35c-.09-.61-.31-1.18-.63-1.73-.33-.56-.74-1.03-1.23-1.41-.52-.4-1.08-.7-1.69-.92-.56-.23-1.21-.35-1.94-.35-1.27,0-2.32.25-3.17.74-.87.45-1.57,1.09-2.11,1.94-.54.77-.94,1.69-1.2,2.75-.07.3-.13.6-.18.88-.05.28-.08.58-.11.88l12.15,5.53v.21c.14-.49.25-1,.32-1.51h5.35ZM98.18,61.58c.85.49,1.9.74,3.17.74,1.41,0,2.56-.38,3.45-1.13l-10-4.54s.04.1.04.16.01.11.04.16c.26,1.03.66,1.94,1.2,2.71.52.78,1.22,1.41,2.11,1.9Z"></path>
    <path class="st0" d="M135.76,59.51v2.18s12.26,0,12.26,0v4.65h-17.79v-25.18h5.53v14.05s12.26,0,12.26,0v4.3h-12.26Z"></path>
    <path class="st0" d="M186.54,41.19v15.64c0,3.43-.95,5.96-2.85,7.61-1.92,1.67-4.56,2.5-7.91,2.5s-5.98-.82-7.88-2.47c-1.87-1.67-2.81-4.21-2.81-7.64v-15.64h5.53v11.34s10.39,4.72,10.39,4.72c0-.07,0-.13.02-.19.01-.06.02-.13.02-.23v-15.64h5.49ZM175.79,62.32c1.97,0,3.34-.45,4.11-1.34,0-.02,0-.04.02-.04s.02-.01.02-.04l-9.31-4.26v.18c0,.35.02.69.05,1.02.04.33.08.66.12.99.14.68.39,1.27.74,1.76.4.52.93.93,1.58,1.23.7.33,1.59.49,2.67.49Z"></path>
    <path class="st0" d="M216.48,45.81v2.15s7.57,0,7.57,0v4.3h-7.57s0,14.09,0,14.09h-5.53v-14.09s-7.54,0-7.54,0v-4.3h7.54s0-2.15,0-2.15h-7.54v-4.65h20.64v4.65h-7.57Z"></path>
    <path class="st0" d="M263.36,56.65c-.14,1.62-.51,3.05-1.09,4.3-.59,1.22-1.36,2.3-2.32,3.24-.94.87-2.07,1.55-3.38,2.04-1.34.47-2.76.7-4.26.7-1.9,0-3.64-.34-5.21-1.02-.78-.33-1.49-.72-2.13-1.18-.65-.46-1.24-.98-1.78-1.57-1.06-1.2-1.87-2.58-2.43-4.16-.56-1.57-.84-3.29-.84-5.14s.28-3.62.84-5.21c.56-1.62,1.37-3.03,2.43-4.23.54-.61,1.13-1.15,1.78-1.62.65-.47,1.36-.87,2.13-1.2,1.57-.68,3.31-1.02,5.21-1.02,1.34,0,2.64.2,3.91.6,1.22.38,2.32.95,3.31,1.73.99.77,1.8,1.73,2.43,2.85.61,1.1,1.01,2.39,1.2,3.87h-5.35c-.09-.61-.31-1.18-.63-1.73-.33-.56-.74-1.03-1.23-1.41-.52-.4-1.08-.7-1.69-.92-.56-.23-1.21-.35-1.94-.35-1.27,0-2.32.25-3.17.74-.87.45-1.57,1.09-2.11,1.94-.54.77-.94,1.69-1.2,2.75-.07.3-.13.6-.18.88-.05.28-.08.58-.11.88l12.15,5.53v.21c.14-.49.25-1,.32-1.51h5.35ZM249.13,61.58c.85.49,1.9.74,3.17.74,1.41,0,2.56-.38,3.45-1.13l-10-4.54s.04.1.04.16c0,.06.01.11.04.16.26,1.03.66,1.94,1.2,2.71.52.78,1.22,1.41,2.11,1.9Z"></path>
    <path class="st0" d="M296.89,41.16h5.53v25.18h-5.53v-7.22s-10.18,0-10.18,0v7.22h-5.53v-25.18h5.53v7.22s10.18,0,10.18,0v-7.22ZM286.71,54.82h10.18s0-2.15,0-2.15h-10.18s0,2.15,0,2.15Z"></path>
  </g>
</svg>